<svg width="1064" height="320" viewBox="0 0 1064 320" fill="none" xmlns="http://www.w3.org/2000/svg">
<path d="M40 103C40 67.6538 68.6538 39 104 39H216C251.346 39 280 67.6538 280 103V215C280 250.346 251.346 279 216 279H104C68.6538 279 40 250.346 40 215V103Z" fill="url(#paint0_radial)"/>
<path d="M203.475 221.222C199.474 221.222 195.481 219.616 192.551 216.444L105.058 121.731C99.4858 115.7 99.8595 106.296 105.891 100.724C111.922 95.1518 121.325 95.5255 126.897 101.557L214.39 196.269C219.962 202.3 219.588 211.704 213.557 217.276C210.699 219.918 207.08 221.222 203.475 221.222Z" fill="url(#paint1_linear)"/>
<path d="M115.979 221.222C107.769 221.222 101.113 214.566 101.113 206.356V166.857C101.113 158.648 107.769 151.992 115.979 151.992H176.501C183.526 151.992 189.243 146.275 189.243 139.25C189.243 132.226 183.526 126.509 176.501 126.509H115.979C107.769 126.509 101.113 119.853 101.113 111.644C101.113 103.434 107.769 96.7783 115.979 96.7783H176.501C199.92 96.7783 218.973 115.831 218.973 139.25C218.973 162.67 199.92 181.723 176.501 181.723H130.844V206.356C130.844 214.566 124.188 221.222 115.979 221.222Z" fill="url(#paint2_radial)"/>
<path d="M344.036 127H354.788C360.668 127 364.588 126.328 367.444 124.312C370.412 122.24 372.092 118.88 372.092 115.016C372.092 109.808 369.068 106.672 364.308 105.552V105.44C367.668 104.264 370.468 101.52 370.468 96.872C370.468 93.232 368.788 90.432 365.708 88.584C362.964 86.904 359.828 86.456 354.9 86.456H344.036V127ZM349.356 104.152V91.272H354.172C358.204 91.272 360.388 91.552 362.292 92.672C363.972 93.68 365.148 95.304 365.148 97.824C365.148 102.248 361.452 104.152 357.364 104.152H349.356ZM349.356 122.184V108.24H357.196C363.244 108.24 366.772 110.648 366.772 115.128C366.772 117.872 365.428 119.552 364.14 120.448C362.292 121.736 359.716 122.184 355.124 122.184H349.356ZM387.032 127.616C390.728 127.616 393.92 126.048 395.488 124.592H395.6C396.664 126.552 398.736 127.504 400.92 127.504C401.984 127.504 402.936 127.28 403.608 127V122.8C403.16 123.024 402.544 123.192 401.984 123.192C400.472 123.192 399.856 121.96 399.856 120.28V108.576C399.856 105.16 398.736 102.808 397.112 101.352C395.152 99.56 392.24 98.832 388.88 98.832C384.792 98.832 381.824 99.896 379.696 101.184V106.112C381.768 104.6 384.68 103.368 388.152 103.368C390.504 103.368 392.184 103.928 393.248 104.88C394.312 105.888 394.816 107.4 394.816 109.416V111.712C393.024 111.264 391.064 110.984 388.936 110.984C386.08 110.984 383.28 111.488 381.208 112.832C379.024 114.232 377.568 116.472 377.568 119.552C377.568 122.24 378.688 124.312 380.48 125.656C382.328 127.056 384.792 127.616 387.032 127.616ZM387.928 123.136C384.96 123.136 382.664 121.792 382.664 119.104C382.664 115.856 386.024 114.848 389.44 114.848C391.176 114.848 393.304 115.128 394.816 115.576V120.728C393.136 122.072 390.56 123.136 387.928 123.136ZM430.501 120.336C428.429 121.96 425.685 123.024 422.549 123.024C416.613 123.024 412.413 119.048 412.413 113.392C412.413 107.848 416.389 103.424 422.381 103.424C425.069 103.424 427.757 104.32 430.053 105.776V100.568C428.093 99.56 425.461 98.832 422.605 98.832C414.037 98.832 407.317 104.88 407.317 113.392C407.317 121.568 413.533 127.616 422.269 127.616C425.069 127.616 428.149 127 430.501 125.712V120.336ZM437.768 127H442.808V112.104L442.92 112.048L456.416 127H463.024L449.08 111.768L461.68 99.448H455.24L442.92 111.6L442.808 111.544V84.216H437.768V127ZM466.741 137.864C469.037 139.04 472.117 139.936 475.477 139.936C483.933 139.936 489.309 134.952 489.309 126.888V99.56L484.437 100.4C482.589 99.504 480.293 98.832 477.437 98.832C468.477 98.832 463.157 105.496 463.157 113.28C463.157 121.4 469.149 127.056 476.653 127.056C479.565 127.056 482.253 126.216 484.157 124.928L484.269 124.984V127C484.269 132.208 480.741 135.344 475.477 135.344C472.397 135.344 469.373 134.224 466.741 132.488V137.864ZM468.253 112.944C468.253 107.568 471.781 103.312 477.325 103.312C479.845 103.312 482.533 104.152 484.269 105.216V120.392C482.589 121.736 479.901 122.632 477.381 122.632C471.949 122.632 468.253 118.488 468.253 112.944ZM498.197 127H503.237V109.08C504.973 106.112 507.605 104.208 511.357 104.208C511.973 104.208 512.645 104.264 513.317 104.432V99.448C512.701 99.28 512.085 99.224 511.525 99.224C508.277 99.224 505.253 100.848 503.349 103.536L503.237 103.48V99.448H498.197V127ZM516.2 113.224C516.2 121.344 522.416 127.616 530.76 127.616C539.104 127.616 545.32 121.344 545.32 113.224C545.32 105.104 539.104 98.832 530.76 98.832C522.416 98.832 516.2 105.104 516.2 113.224ZM521.24 113.224C521.24 107.68 525.272 103.424 530.76 103.424C536.248 103.424 540.28 107.68 540.28 113.224C540.28 118.768 536.248 123.024 530.76 123.024C525.272 123.024 521.24 118.768 521.24 113.224ZM554.411 124.536C556.259 126.664 559.115 127.616 561.915 127.616C565.723 127.616 569.027 125.88 571.435 123.472L571.547 123.528V127H576.587V99.448H571.547V118.264C569.587 120.728 566.339 122.968 562.923 122.968C561.299 122.968 559.675 122.464 558.555 121.064C557.603 119.944 557.211 118.376 557.211 115.352V99.448H552.171V116.304C552.171 120.224 552.843 122.688 554.411 124.536ZM585.424 127H590.464V108.128C592.424 105.496 595.952 103.536 599.088 103.536C600.6 103.536 602.392 103.984 603.512 105.328C604.408 106.392 604.8 108.072 604.8 110.928V127H609.84V109.976C609.84 105.72 609.056 103.592 607.544 101.856C605.808 99.896 603.232 98.832 600.208 98.832C596.344 98.832 592.984 100.568 590.576 102.976L590.464 102.92V99.448H585.424V127ZM616.773 113.672C616.773 122.184 622.821 127.616 630.269 127.616C633.573 127.616 636.149 126.552 637.997 125.264L638.109 125.32V127H643.149V84.216H638.109V100.232L637.997 100.288C636.205 99.504 634.133 98.832 631.389 98.832C622.709 98.832 616.773 105.216 616.773 113.672ZM621.869 113.392C621.869 107.736 625.509 103.312 631.333 103.312C633.797 103.312 636.261 104.096 638.109 105.048V120.784C636.149 122.128 633.685 123.136 630.941 123.136C625.285 123.136 621.869 118.88 621.869 113.392ZM665.653 127H670.973V109.64H677.861L690.237 127H696.677L683.685 109.136C685.365 108.856 686.877 108.352 688.333 107.456C691.413 105.608 693.541 102.304 693.541 97.936C693.541 93.456 691.301 90.32 687.941 88.472C684.637 86.624 680.717 86.456 676.629 86.456H665.653V127ZM670.973 105.272V91.272H676.237C680.157 91.272 682.733 91.44 684.917 92.616C687.045 93.792 688.221 95.808 688.221 98.384C688.221 100.624 687.325 102.304 685.813 103.424C683.965 104.824 681.445 105.272 677.861 105.272H670.973ZM724.186 114.68C724.298 114.008 724.354 113 724.354 112.16C724.354 103.536 718.53 98.832 711.81 98.832C704.418 98.832 698.09 104.544 698.09 113.224C698.09 121.904 704.474 127.616 712.986 127.616C716.57 127.616 720.378 126.608 722.842 125.04V119.664C720.322 121.568 717.13 123.08 713.322 123.08C707.89 123.08 703.858 120.112 703.13 114.68H724.186ZM711.698 103.368C715.002 103.368 719.034 105.216 719.482 110.704H703.242C704.138 105.608 708.058 103.368 711.698 103.368ZM769.461 127H774.501V109.808C774.501 106.056 773.885 103.592 772.205 101.744C770.525 99.84 767.949 98.832 764.981 98.832C761.173 98.832 757.813 100.456 754.509 103.592C752.829 100.288 749.469 98.832 746.053 98.832C742.245 98.832 738.997 100.568 736.701 102.864L736.589 102.808V99.448H731.549V127H736.589V107.848C738.493 105.552 741.741 103.536 744.989 103.536C746.557 103.536 748.069 103.984 749.189 105.272C750.141 106.392 750.477 107.736 750.477 110.704V127H755.517V109.808C755.517 109.136 755.517 108.464 755.461 107.848C757.365 105.608 760.669 103.536 763.861 103.536C765.317 103.536 766.997 103.984 768.061 105.216C769.069 106.392 769.461 108.072 769.461 110.704V127ZM781.325 113.224C781.325 121.344 787.541 127.616 795.885 127.616C804.229 127.616 810.445 121.344 810.445 113.224C810.445 105.104 804.229 98.832 795.885 98.832C787.541 98.832 781.325 105.104 781.325 113.224ZM786.365 113.224C786.365 107.68 790.397 103.424 795.885 103.424C801.373 103.424 805.405 107.68 805.405 113.224C805.405 118.768 801.373 123.024 795.885 123.024C790.397 123.024 786.365 118.768 786.365 113.224ZM824.332 127H829.372L840.908 99.448H835.644L830.66 111.544C829.372 114.68 828.196 117.592 826.964 120.728H826.852C825.676 117.704 824.556 114.904 823.324 111.88L818.228 99.448H812.74L824.332 127ZM869.272 114.68C869.384 114.008 869.44 113 869.44 112.16C869.44 103.536 863.616 98.832 856.896 98.832C849.504 98.832 843.176 104.544 843.176 113.224C843.176 121.904 849.56 127.616 858.072 127.616C861.656 127.616 865.464 126.608 867.928 125.04V119.664C865.408 121.568 862.216 123.08 858.408 123.08C852.976 123.08 848.944 120.112 848.216 114.68H869.272ZM856.784 103.368C860.088 103.368 864.12 105.216 864.568 110.704H848.328C849.224 105.608 853.144 103.368 856.784 103.368ZM874.843 113.672C874.843 122.184 880.891 127.616 888.339 127.616C891.643 127.616 894.219 126.552 896.067 125.264L896.179 125.32V127H901.219V84.216H896.179V100.232L896.067 100.288C894.275 99.504 892.203 98.832 889.459 98.832C880.779 98.832 874.843 105.216 874.843 113.672ZM879.939 113.392C879.939 107.736 883.579 103.312 889.403 103.312C891.867 103.312 894.331 104.096 896.179 105.048V120.784C894.219 122.128 891.755 123.136 889.011 123.136C883.355 123.136 879.939 118.88 879.939 113.392ZM923.612 127L928.484 126.16C930.556 127 932.796 127.616 935.372 127.616C943.828 127.616 949.988 121.344 949.988 112.832C949.988 104.488 943.996 98.832 936.548 98.832C933.244 98.832 930.5 99.952 928.764 101.072L928.652 101.016V84.216H923.612V127ZM928.652 121.4V105.944C930.5 104.432 932.964 103.368 935.932 103.368C941.364 103.368 944.892 107.568 944.892 113.112C944.892 118.88 941.14 123.192 935.54 123.192C933.244 123.192 930.444 122.464 928.652 121.4ZM961.385 139.32L980.033 99.448H974.713L969.897 109.864C968.609 112.664 967.377 115.408 966.145 118.152H966.033C964.913 115.632 963.569 112.664 962.281 109.864L957.465 99.448H951.865L963.345 124.032L955.897 139.32H961.385Z" fill="#13156D"/>
<path d="M344 154.656H368.957C389.501 154.656 407.499 160.36 407.499 181.542C407.499 200.978 393.338 208.777 368.264 208.777H362.459V238.921H344V154.656ZM369.19 193.767C384.394 193.767 389.041 190.392 389.041 182.476C389.041 173.164 382.658 170.834 368.724 170.834H362.459V193.761H369.19V193.767Z" fill="#13156D"/>
<path d="M417.844 150H435.487V186.781L435.72 186.898C439.901 183.407 445.934 180.377 453.131 180.377C459.164 180.377 464.504 182.473 468.108 186.198C471.59 189.922 473.098 194.926 473.098 203.193V238.923H455.454V206.1C455.454 201.792 454.872 199.701 453.48 198.072C451.972 196.327 449.882 195.626 447.442 195.626C442.918 195.626 438.62 197.956 435.487 200.396V238.923H417.844V150V150Z" fill="#13156D"/>
<path d="M515.692 180.374C533.918 180.374 547.497 193.411 547.497 210.289C547.497 227.162 533.918 240.199 515.692 240.199C497.466 240.199 483.887 227.162 483.887 210.289C483.887 193.411 497.466 180.374 515.692 180.374ZM515.692 224.955C523.699 224.955 529.854 218.434 529.854 210.289C529.854 202.139 523.699 195.623 515.692 195.623C507.685 195.623 501.53 202.145 501.53 210.289C501.53 218.434 507.685 224.955 515.692 224.955Z" fill="#13156D"/>
<path d="M562.831 217.389V196.319H553.543V181.653H562.831V166.759L580.474 163.734V181.658H595.567V196.319H580.474V215.521C580.474 221.108 581.75 225.3 587.089 225.3C589.989 225.3 593.244 224.138 595.562 222.971V237.053C592.895 238.798 587.666 240.194 582.676 240.194C576.87 240.194 571.414 238.331 567.816 234.49C564.799 231.237 562.831 226.462 562.831 217.389Z" fill="#13156D"/>
<path d="M633.754 180.374C651.98 180.374 665.56 193.411 665.56 210.289C665.56 227.162 651.98 240.199 633.754 240.199C615.529 240.199 601.949 227.162 601.949 210.289C601.944 193.411 615.529 180.374 633.754 180.374ZM633.754 224.955C641.761 224.955 647.916 218.434 647.916 210.289C647.916 202.139 641.761 195.623 633.754 195.623C625.748 195.623 619.593 202.145 619.593 210.289C619.588 218.434 625.742 224.955 633.754 224.955Z" fill="#13156D"/>
<path d="M676.939 154.656H703.288C722.44 154.656 739.507 159.893 739.507 180.03C739.507 190.854 733.585 199.699 722.44 203.307L746.122 238.921H724.88L703.632 205.631H695.392V238.921H676.934V154.656H676.939ZM704.685 191.788C715.132 191.788 721.054 189.113 721.054 181.314C721.054 173.981 716.18 170.84 702.478 170.84H695.398V191.788H704.685Z" fill="#13156D"/>
<path d="M778.626 180.374C796.851 180.374 810.431 193.411 810.431 210.289C810.431 227.162 796.851 240.199 778.626 240.199C760.4 240.199 746.82 227.162 746.82 210.289C746.82 193.411 760.4 180.374 778.626 180.374ZM778.626 224.955C786.632 224.955 792.787 218.434 792.787 210.289C792.787 202.139 786.632 195.623 778.626 195.623C770.619 195.623 764.464 202.145 764.464 210.289C764.464 218.434 770.619 224.955 778.626 224.955Z" fill="#13156D"/>
<path d="M849.672 180.374C867.898 180.374 881.478 193.411 881.478 210.289C881.478 227.162 867.898 240.199 849.672 240.199C831.447 240.199 817.867 227.162 817.867 210.289C817.867 193.411 831.447 180.374 849.672 180.374ZM849.672 224.955C857.679 224.955 863.834 218.434 863.834 210.289C863.834 202.139 857.679 195.623 849.672 195.623C841.666 195.623 835.511 202.145 835.511 210.289C835.511 218.434 841.666 224.955 849.672 224.955Z" fill="#13156D"/>
<path d="M966.358 205.869C966.358 201.561 965.66 199.582 964.268 198.07C962.643 196.324 960.553 195.623 958.229 195.623C954.165 195.623 949.99 197.719 946.968 200.394C947.084 201.211 947.084 202.139 947.084 202.956V238.92H929.441V205.864C929.441 202.023 928.859 199.693 927.35 198.064C925.726 196.319 923.635 195.618 921.312 195.618C917.248 195.618 913.072 197.831 910.167 200.277V238.92H892.523V181.658H909.934V186.778L910.167 186.895C914.581 183.17 920.386 180.374 927.35 180.374C933.505 180.374 940.586 182.82 943.952 188.524C950.106 183.054 956.838 180.374 964.035 180.374C970.417 180.374 975.413 182.587 978.778 186.078C982.377 189.803 984.002 194.806 984.002 202.951V238.915H966.358V205.869Z" fill="#13156D"/>
<defs>
<radialGradient id="paint0_radial" cx="0" cy="0" r="1" gradientUnits="userSpaceOnUse" gradientTransform="translate(160 159) rotate(90) scale(120)">
<stop stop-color="#361496"/>
<stop offset="0.265625" stop-color="#2E148C"/>
<stop offset="1" stop-color="#001656"/>
</radialGradient>
<linearGradient id="paint1_linear" x1="203.35" y1="223.678" x2="116.703" y2="95.2184" gradientUnits="userSpaceOnUse">
<stop stop-color="white"/>
<stop offset="0.00206842" stop-color="#FCFEFF"/>
<stop offset="0.0174" stop-color="#ECF6FC"/>
<stop offset="0.0346" stop-color="#E2F1FA"/>
<stop offset="0.0568" stop-color="#DFF0FA"/>
<stop offset="0.1559" stop-color="#95D9FC"/>
<stop offset="0.2807" stop-color="#5071FC"/>
<stop offset="0.3535" stop-color="#4F6DFB"/>
<stop offset="0.4274" stop-color="#4A61F8"/>
<stop offset="0.5016" stop-color="#434CF3"/>
<stop offset="0.5762" stop-color="#3830EC"/>
<stop offset="0.6504" stop-color="#2B0CE3"/>
<stop offset="0.6537" stop-color="#2A0AE3"/>
<stop offset="1" stop-color="#400A7F"/>
</linearGradient>
<radialGradient id="paint2_radial" cx="0" cy="0" r="1" gradientUnits="userSpaceOnUse" gradientTransform="translate(93.893 246.28) rotate(-46.5126) scale(221.866 377.184)">
<stop offset="0.091" stop-color="#FC8D95"/>
<stop offset="0.1398" stop-color="#FC97A0"/>
<stop offset="0.2256" stop-color="#FDB1BD"/>
<stop offset="0.3374" stop-color="#FEDCEC"/>
<stop offset="0.3672" stop-color="#FEE8FA"/>
<stop offset="0.4193" stop-color="#FEE2FA"/>
<stop offset="0.4858" stop-color="#FDD3FB"/>
<stop offset="0.5354" stop-color="#FCC2FB"/>
<stop offset="0.674" stop-color="#FCBFFB"/>
<stop offset="0.7808" stop-color="#FAB5FC"/>
<stop offset="0.8767" stop-color="#F8A5FE"/>
<stop offset="0.9188" stop-color="#F79BFF"/>
</radialGradient>
</defs>
</svg>
